<?xml version="1.0" standalone="no"?>
<!DOCTYPE svg PUBLIC "-//W3C//DTD SVG 20010904//EN"
 "http://www.w3.org/TR/2001/REC-SVG-20010904/DTD/svg10.dtd">
<svg version="1.0" xmlns="http://www.w3.org/2000/svg"
 width="3161.000000pt" height="2593.000000pt" viewBox="0 0 3161.000000 2593.000000"
 preserveAspectRatio="xMidYMid meet">

<g transform="translate(0.000000,2593.000000) scale(0.100000,-0.100000)"
fill="#000000" stroke="none">
<path d="M2550 23255 c0 -52 -4 -76 -15 -85 -12 -10 -15 -37 -15 -127 0 -68
-4 -112 -9 -108 -19 11 -25 -23 -28 -157 -2 -105 -6 -144 -18 -160 -12 -19
-15 -62 -15 -254 0 -197 -2 -233 -15 -238 -13 -5 -15 -60 -15 -414 0 -337 2
-412 14 -421 11 -9 14 -59 15 -244 1 -174 5 -234 14 -242 16 -12 21 -62 19
-180 -2 -84 10 -145 28 -145 4 0 9 -46 9 -101 1 -105 5 -124 22 -113 6 3 10 0
8 -7 -1 -8 -1 -51 0 -96 1 -59 5 -86 17 -97 10 -10 15 -34 15 -68 1 -72 9
-110 22 -105 8 3 13 -19 15 -71 2 -48 9 -80 18 -89 8 -9 14 -35 14 -67 0 -35
5 -58 15 -66 9 -8 15 -29 15 -56 0 -44 17 -94 32 -94 4 0 8 -22 8 -49 0 -31 5
-53 15 -61 9 -8 15 -29 15 -56 0 -24 6 -49 15 -58 8 -8 15 -24 15 -35 0 -29
19 -73 28 -67 5 3 10 -18 11 -47 1 -33 7 -56 16 -63 8 -6 15 -25 15 -42 0 -17
7 -37 15 -45 8 -8 15 -32 17 -52 1 -23 9 -42 20 -49 11 -7 18 -23 18 -44 0
-20 6 -35 15 -38 10 -4 15 -20 15 -45 0 -26 5 -42 15 -45 8 -4 15 -18 15 -34
0 -15 8 -35 19 -44 10 -9 19 -28 19 -42 0 -13 7 -33 16 -43 9 -9 16 -27 16
-38 0 -11 7 -26 15 -33 8 -7 15 -21 15 -30 0 -29 11 -50 26 -50 8 0 13 -3 13
-7 -5 -32 3 -63 16 -63 9 0 15 -9 15 -24 0 -14 6 -31 13 -38 6 -7 17 -26 23
-43 6 -16 15 -29 21 -28 6 1 9 -6 6 -16 -3 -11 4 -28 16 -40 12 -12 21 -29 21
-40 0 -10 7 -24 15 -31 8 -7 15 -21 15 -31 0 -10 9 -24 20 -31 11 -7 20 -22
20 -34 0 -12 7 -24 15 -28 8 -3 15 -15 15 -26 0 -11 7 -23 15 -26 8 -4 15 -14
15 -24 0 -10 8 -26 17 -36 10 -9 18 -24 20 -33 1 -8 9 -21 17 -27 9 -6 16 -19
16 -28 0 -9 7 -19 15 -22 8 -4 15 -14 15 -25 0 -10 9 -23 20 -29 11 -6 20 -20
20 -30 0 -11 7 -20 16 -20 8 0 13 -4 9 -10 -3 -5 3 -18 14 -29 10 -10 22 -28
26 -40 3 -12 13 -21 20 -21 8 0 12 -6 10 -12 -3 -7 11 -30 30 -51 19 -21 35
-43 35 -49 0 -6 7 -18 15 -27 43 -48 52 -59 58 -74 3 -9 11 -17 17 -17 5 0 10
-7 10 -15 0 -9 7 -18 15 -21 8 -4 15 -12 15 -18 0 -7 14 -25 31 -42 17 -16 44
-48 61 -72 16 -23 33 -40 39 -37 5 4 9 0 9 -8 0 -16 41 -67 96 -121 17 -17 34
-39 37 -48 4 -10 13 -18 22 -18 8 0 15 -5 15 -10 0 -14 106 -120 120 -120 5 0
10 -6 10 -12 0 -15 43 -58 58 -58 5 0 12 -9 15 -21 3 -12 10 -18 16 -14 6 3
11 2 11 -4 0 -12 47 -61 58 -61 4 0 15 -8 23 -17 40 -45 128 -123 138 -123 6
0 11 -7 11 -15 0 -8 7 -15 15 -15 9 0 18 -7 21 -15 4 -8 11 -15 16 -15 9 0 58
-41 103 -87 12 -13 27 -23 34 -23 6 0 11 -5 11 -10 0 -6 8 -14 19 -18 10 -4
33 -19 52 -35 67 -54 128 -97 138 -97 5 0 14 -6 18 -13 7 -12 27 -26 121 -82
47 -28 78 -51 85 -62 4 -7 16 -13 26 -13 11 0 21 -7 25 -15 3 -8 15 -15 26
-15 11 0 23 -7 26 -15 4 -8 14 -15 25 -15 10 0 23 -9 29 -20 6 -11 18 -20 26
-20 9 0 22 -7 30 -15 9 -8 24 -15 35 -15 10 0 19 -7 19 -15 0 -10 10 -15 30
-15 20 0 30 -5 30 -15 0 -8 6 -15 14 -15 7 0 25 -9 39 -20 14 -11 33 -20 42
-20 10 0 23 -7 29 -15 6 -8 23 -16 39 -17 15 -1 27 -8 27 -15 0 -8 13 -16 30
-19 16 -4 35 -13 41 -20 6 -8 24 -14 40 -14 19 0 29 -5 29 -15 0 -13 25 -21
53 -16 4 0 7 -5 7 -13 0 -15 21 -26 48 -26 8 0 23 -7 32 -15 9 -8 28 -16 43
-17 15 -1 29 -8 31 -15 3 -7 18 -13 33 -13 16 0 36 -9 46 -20 9 -11 28 -20 41
-20 13 0 29 -7 36 -15 7 -8 25 -15 40 -15 16 0 30 -7 34 -15 4 -10 20 -15 51
-15 28 0 44 -4 40 -10 -7 -11 41 -33 58 -27 6 2 19 -5 29 -15 10 -10 33 -18
52 -18 21 0 36 -6 40 -15 3 -10 19 -15 42 -15 21 0 41 -6 48 -15 6 -8 30 -17
54 -19 23 -3 49 -12 58 -20 8 -9 30 -16 48 -16 19 0 39 -7 46 -15 7 -9 29 -15
53 -15 24 0 44 -6 51 -16 7 -9 31 -16 58 -18 26 -2 54 -11 63 -20 26 -25 70
-20 90 10 9 14 18 36 19 50 2 13 10 32 19 42 10 10 17 26 17 34 0 9 7 21 15
28 8 7 15 21 15 31 0 11 9 28 21 40 12 12 19 29 16 40 -3 11 0 19 8 19 14 0
25 22 25 50 0 10 7 20 15 24 8 3 15 15 15 26 0 11 9 29 20 40 11 11 20 29 20
39 0 10 7 21 15 25 8 3 15 15 15 26 0 11 7 23 15 26 9 4 15 19 15 41 0 20 4
32 10 28 5 -3 16 7 22 22 7 15 18 34 25 41 7 7 13 22 13 32 0 10 7 20 15 24 8
3 15 17 15 31 0 15 6 25 14 25 8 0 17 14 21 30 4 16 10 30 15 30 4 0 13 14 19
30 5 17 15 30 20 30 6 0 11 9 11 20 0 11 9 29 21 41 11 11 18 27 15 34 -2 7 4
15 15 18 11 3 19 14 19 26 0 12 7 24 15 27 8 4 15 16 15 28 0 12 9 27 20 34
11 7 20 18 20 26 0 8 7 16 15 20 8 3 15 12 15 20 0 8 7 21 15 29 8 8 16 21 17
28 2 7 11 21 21 31 9 10 17 25 17 33 0 8 5 15 10 15 6 0 15 10 21 23 16 36 33
62 52 81 9 10 15 21 12 26 -3 4 2 11 10 14 9 3 20 17 25 31 5 14 14 25 20 25
5 0 10 7 10 15 0 8 9 25 20 38 42 47 50 57 50 66 0 5 7 11 15 15 8 3 15 12 15
20 0 8 16 32 35 53 19 21 35 43 35 49 0 7 7 14 15 18 8 3 15 12 15 20 0 7 7
16 15 20 8 3 15 10 15 16 0 6 16 27 35 47 19 20 35 42 35 50 0 7 4 13 8 13 4
0 24 21 45 48 20 26 46 59 59 74 13 14 30 36 38 49 20 31 92 112 108 122 6 4
12 15 12 22 0 8 7 15 15 15 8 0 15 7 15 15 0 16 35 55 49 55 5 0 12 8 15 18 4
9 58 70 121 136 63 65 115 124 115 132 0 8 5 14 11 14 15 0 95 80 91 92 -1 4
3 8 9 8 6 0 47 36 90 80 43 44 82 80 86 80 4 0 39 32 78 71 126 126 140 139
153 139 6 0 12 7 12 15 0 8 6 15 14 15 8 0 16 7 20 15 3 8 12 15 21 15 8 0 15
6 15 14 0 8 15 23 33 35 17 11 48 36 66 55 19 20 39 36 43 36 5 0 22 14 38 30
16 17 33 30 37 30 4 0 33 23 63 50 30 28 60 50 66 50 7 0 14 7 18 15 3 8 11
15 18 15 8 0 21 8 30 18 38 38 55 52 67 52 6 0 14 7 17 15 4 8 12 15 18 15 7
0 23 11 36 25 l24 25 -20 28 c-11 15 -23 35 -27 45 -4 10 -11 15 -17 12 -6 -4
-10 5 -10 20 0 14 -7 28 -15 31 -8 4 -15 14 -15 24 0 9 -9 25 -20 35 -11 10
-20 24 -20 32 0 7 -7 16 -15 19 -8 4 -15 12 -15 20 0 8 -9 24 -20 37 -34 38
-45 53 -48 68 -2 7 -7 16 -10 19 -10 8 -52 68 -52 75 0 4 -24 37 -52 74 -29
38 -60 79 -68 91 -8 13 -23 30 -32 39 -10 8 -18 21 -18 29 0 7 -7 15 -15 18
-8 4 -15 10 -15 15 0 11 -109 153 -121 157 -5 2 -9 8 -9 14 0 6 -18 30 -40 54
-22 24 -40 48 -40 54 0 5 -7 10 -15 10 -8 0 -14 3 -14 8 3 20 -2 32 -16 32 -8
0 -15 5 -15 10 0 6 -8 18 -17 28 -17 17 -88 99 -133 152 -77 93 -462 500 -472
500 -2 0 -67 62 -145 138 -182 177 -243 232 -253 232 -4 0 -10 7 -14 15 -3 8
-11 15 -18 15 -8 0 -21 8 -29 18 -46 51 -161 152 -174 152 -8 0 -15 7 -15 15
0 8 -5 15 -11 15 -6 0 -38 25 -72 55 -33 30 -64 55 -69 55 -7 0 -39 25 -88 70
-22 20 -78 60 -84 60 -3 0 -22 16 -43 35 -21 19 -42 35 -46 35 -8 0 -26 14
-55 41 -9 10 -36 27 -59 39 -24 12 -43 26 -43 31 0 5 -8 13 -17 16 -10 4 -22
12 -28 19 -5 7 -16 14 -24 16 -8 2 -22 10 -31 18 -37 32 -65 50 -77 50 -7 0
-13 7 -13 15 0 8 -8 15 -18 15 -10 0 -25 9 -35 20 -9 11 -24 20 -32 20 -8 0
-15 4 -15 9 0 5 -9 13 -21 16 -12 4 -30 16 -40 26 -11 11 -24 17 -28 14 -5 -2
-11 2 -15 10 -3 8 -12 15 -19 15 -8 0 -21 7 -28 16 -7 9 -22 20 -34 25 -23 10
-49 26 -84 51 -13 10 -27 15 -32 13 -4 -3 -13 4 -19 15 -6 12 -21 20 -35 20
-14 0 -25 5 -25 10 0 6 -11 15 -25 20 -14 5 -25 14 -25 20 0 5 -9 10 -20 10
-11 0 -28 9 -37 20 -10 11 -25 20 -34 20 -9 0 -19 7 -23 15 -3 8 -15 15 -27
15 -12 0 -27 7 -33 16 -7 9 -24 17 -38 17 -14 1 -24 5 -21 10 2 4 -11 14 -31
22 -19 8 -37 19 -41 25 -3 5 -14 10 -23 10 -10 0 -23 9 -30 21 -8 13 -20 19
-32 16 -10 -2 -25 4 -34 14 -9 11 -27 19 -40 19 -13 0 -26 7 -30 15 -3 8 -15
15 -26 15 -11 0 -29 9 -39 19 -12 12 -27 17 -40 14 -14 -4 -21 -1 -21 10 0 16
-20 27 -50 27 -10 0 -20 7 -24 15 -3 8 -15 15 -27 15 -12 0 -27 7 -34 16 -6
10 -23 18 -37 18 -14 1 -33 9 -42 19 -10 9 -28 17 -41 17 -12 0 -25 7 -29 15
-3 8 -18 15 -32 15 -15 0 -35 7 -44 15 -9 8 -29 16 -43 17 -15 1 -27 8 -27 14
0 14 -23 24 -55 24 -12 0 -25 7 -29 15 -3 10 -19 15 -46 15 -27 0 -39 4 -38
13 2 8 -13 13 -44 15 -36 2 -46 6 -42 17 4 11 -5 16 -36 21 -23 4 -44 13 -47
20 -3 9 -20 14 -43 14 -24 0 -40 5 -44 15 -3 10 -19 15 -47 15 -23 0 -39 3
-36 7 14 13 -17 33 -53 33 -24 0 -40 5 -44 15 -3 10 -19 15 -42 15 -21 0 -45
7 -53 14 -9 8 -35 16 -58 17 -23 2 -40 6 -37 10 7 11 -30 29 -59 29 -14 0 -30
7 -37 15 -8 9 -30 15 -60 15 -30 0 -52 6 -60 15 -8 10 -30 15 -61 15 -35 0
-49 4 -49 14 0 15 -30 26 -74 26 -16 0 -37 6 -45 14 -9 8 -36 16 -61 17 -25 2
-49 9 -55 16 -6 7 -37 13 -72 14 -34 1 -60 6 -57 10 8 13 -14 20 -71 24 -33 2
-61 9 -70 19 -11 11 -35 16 -76 16 -46 0 -59 3 -59 15 0 12 -15 15 -75 15 -61
0 -79 4 -95 20 -15 15 -29 19 -67 15 -34 -3 -59 2 -86 16 -25 13 -58 19 -100
19 -40 0 -70 5 -83 15 -13 10 -47 14 -116 15 -54 0 -98 4 -98 9 0 17 -35 24
-127 26 -65 2 -98 7 -114 19 -19 13 -51 16 -162 16 -87 0 -136 4 -132 10 8 12
-22 18 -122 23 l-83 4 0 -72z"/>
<path d="M28846 23305 c-4 -12 -30 -15 -145 -15 -117 0 -142 -3 -156 -17 -13
-13 -38 -17 -109 -19 -120 -2 -119 -2 -113 -17 4 -11 -18 -14 -101 -16 -80 -2
-109 -6 -115 -17 -6 -10 -29 -14 -85 -14 -50 0 -85 -5 -98 -14 -11 -8 -50 -16
-87 -19 -43 -2 -74 -10 -85 -21 -13 -11 -37 -16 -86 -16 -50 0 -68 -4 -72 -15
-5 -11 -22 -15 -62 -15 -35 0 -61 -5 -72 -15 -9 -8 -42 -16 -75 -18 -36 -3
-62 -9 -69 -19 -7 -9 -32 -15 -66 -17 -34 -1 -59 -8 -66 -17 -7 -8 -29 -14
-54 -14 -24 0 -51 -6 -59 -14 -9 -8 -37 -16 -64 -19 -26 -3 -54 -13 -63 -21
-9 -10 -33 -16 -59 -16 -29 0 -45 -5 -49 -15 -4 -10 -19 -15 -49 -15 -27 0
-49 -6 -57 -15 -7 -8 -23 -15 -36 -15 -31 0 -76 -18 -70 -28 3 -5 -14 -9 -37
-10 -24 -1 -47 -8 -53 -17 -7 -9 -27 -15 -52 -15 -24 0 -44 -6 -49 -14 -4 -7
-28 -16 -53 -19 -24 -3 -49 -13 -56 -21 -6 -9 -23 -16 -36 -16 -14 0 -31 -7
-38 -15 -7 -8 -25 -15 -40 -15 -15 0 -33 -7 -40 -15 -7 -8 -28 -15 -47 -15
-26 0 -36 -5 -40 -20 -4 -16 -14 -20 -44 -20 -26 0 -42 -5 -45 -15 -4 -9 -19
-15 -40 -15 -22 0 -37 -6 -40 -15 -4 -8 -16 -15 -29 -15 -12 0 -34 -9 -48 -20
-14 -11 -37 -20 -51 -20 -16 0 -26 -6 -26 -15 0 -10 -10 -15 -30 -15 -18 0
-33 -6 -36 -15 -4 -8 -18 -15 -34 -15 -16 0 -35 -7 -44 -15 -8 -8 -29 -18 -45
-21 -17 -4 -31 -13 -31 -20 0 -9 -11 -14 -30 -14 -18 0 -33 -6 -36 -15 -4 -8
-17 -15 -30 -15 -12 0 -29 -8 -36 -17 -7 -10 -24 -19 -38 -21 -14 -1 -30 -9
-36 -17 -6 -8 -20 -15 -31 -15 -11 0 -26 -7 -33 -15 -7 -8 -21 -15 -31 -15
-10 0 -24 -9 -31 -20 -8 -12 -24 -20 -41 -20 -15 0 -30 -7 -33 -15 -4 -8 -17
-15 -30 -15 -13 0 -24 -4 -24 -10 0 -5 -15 -16 -34 -24 -18 -8 -37 -19 -40
-25 -4 -6 -15 -11 -25 -11 -10 0 -24 -7 -31 -15 -7 -8 -21 -15 -31 -15 -10 0
-22 -6 -26 -13 -4 -6 -29 -22 -54 -35 -26 -12 -52 -29 -59 -37 -7 -8 -21 -15
-32 -15 -10 0 -21 -7 -24 -15 -4 -8 -12 -15 -20 -15 -8 0 -22 -9 -31 -19 -9
-11 -21 -17 -28 -15 -6 3 -20 -4 -30 -16 -10 -11 -26 -20 -37 -20 -10 0 -18
-5 -18 -10 0 -6 -11 -15 -25 -20 -14 -5 -28 -17 -31 -25 -4 -8 -14 -15 -24
-15 -10 0 -23 -7 -30 -15 -7 -8 -18 -15 -25 -15 -7 0 -15 -7 -19 -15 -3 -8
-14 -15 -24 -15 -10 0 -27 -9 -37 -20 -10 -11 -24 -20 -32 -20 -7 0 -13 -7
-13 -15 0 -8 -7 -15 -15 -15 -15 0 -74 -36 -86 -53 -8 -11 -47 -34 -71 -43
-10 -3 -18 -10 -18 -15 0 -5 -11 -14 -25 -19 -14 -5 -25 -14 -25 -19 0 -5 -11
-12 -25 -15 -14 -4 -25 -11 -25 -16 0 -6 -11 -15 -25 -20 -14 -5 -25 -14 -25
-20 0 -5 -6 -10 -12 -10 -7 0 -30 -16 -51 -35 -21 -19 -45 -35 -53 -35 -8 0
-14 -7 -14 -15 0 -8 -7 -15 -16 -15 -14 0 -38 -19 -105 -82 -11 -10 -22 -18
-27 -18 -4 0 -35 -24 -69 -52 -61 -53 -83 -70 -123 -98 -12 -8 -46 -38 -75
-66 -30 -28 -61 -54 -69 -57 -9 -4 -16 -11 -16 -17 0 -5 -5 -10 -11 -10 -11 0
-53 -38 -187 -167 -41 -40 -77 -73 -80 -73 -3 0 -33 -29 -68 -65 -35 -36 -66
-65 -70 -65 -7 0 -176 -171 -307 -312 -43 -45 -110 -115 -148 -155 -38 -39
-69 -74 -69 -77 0 -4 -13 -20 -30 -36 -16 -16 -30 -36 -30 -45 0 -9 -5 -13
-11 -10 -6 4 -13 -2 -16 -14 -3 -12 -12 -21 -19 -21 -8 0 -14 -4 -14 -9 0 -8
-46 -64 -92 -113 -10 -10 -18 -21 -18 -25 0 -5 -16 -26 -35 -48 -48 -54 -52
-59 -114 -140 -30 -38 -60 -74 -68 -78 -7 -4 -13 -16 -13 -26 0 -11 -7 -21
-15 -25 -8 -3 -15 -10 -15 -15 0 -5 -16 -27 -35 -48 -19 -21 -35 -45 -35 -54
0 -9 -7 -19 -15 -23 -8 -3 -15 -9 -15 -14 0 -5 -16 -27 -35 -48 -19 -21 -35
-44 -35 -51 0 -7 -9 -23 -20 -35 -12 -13 -27 -30 -35 -39 -8 -9 -15 -20 -15
-26 0 -6 -7 -16 -15 -23 -8 -7 -15 -21 -15 -31 0 -11 -7 -19 -15 -19 -8 0 -15
-8 -15 -18 0 -10 -9 -25 -20 -35 -11 -9 -20 -23 -20 -31 0 -8 -7 -16 -15 -20
-8 -3 -15 -14 -15 -25 0 -10 -7 -21 -15 -25 -17 -6 -21 -46 -4 -46 6 0 30 -16
53 -35 24 -19 48 -35 54 -35 6 0 28 -16 49 -35 21 -19 44 -35 51 -35 6 0 12
-7 12 -15 0 -8 7 -15 15 -15 8 0 23 -8 33 -17 49 -47 92 -83 103 -85 7 -2 38
-27 68 -55 31 -29 61 -53 67 -53 7 0 14 -7 18 -15 3 -8 10 -15 16 -15 13 0 50
-37 50 -50 0 -5 6 -10 14 -10 13 0 29 -13 148 -126 26 -24 50 -44 53 -44 10 0
299 -275 409 -388 143 -149 255 -273 268 -296 5 -9 16 -16 23 -16 8 0 15 -6
15 -12 0 -7 30 -44 65 -82 36 -39 65 -73 65 -78 0 -4 9 -12 20 -18 11 -6 19
-14 17 -19 -2 -7 71 -97 116 -143 9 -10 17 -21 17 -25 0 -5 14 -21 30 -37 16
-16 32 -37 35 -47 4 -11 11 -19 16 -19 5 0 14 -11 19 -25 5 -14 14 -25 20 -25
5 0 10 -6 10 -13 0 -7 8 -20 18 -29 32 -32 49 -53 55 -70 4 -10 11 -18 17 -18
5 0 10 -5 10 -10 0 -14 41 -72 58 -83 6 -4 12 -13 12 -19 0 -6 16 -30 35 -54
19 -23 35 -47 35 -52 0 -5 7 -13 16 -16 8 -3 13 -10 10 -15 -3 -5 6 -21 19
-37 53 -60 64 -76 84 -121 6 -13 15 -23 21 -23 5 0 10 -9 10 -20 0 -10 6 -23
13 -27 14 -8 40 -51 53 -85 3 -10 13 -18 20 -18 8 0 14 -10 14 -25 0 -14 7
-28 15 -31 8 -4 15 -12 15 -19 0 -8 8 -21 17 -31 10 -9 18 -24 20 -33 1 -8 9
-21 17 -27 9 -6 16 -19 16 -28 0 -16 36 -74 54 -88 5 -3 11 -15 12 -24 2 -10
10 -24 18 -30 9 -6 16 -21 16 -33 0 -11 5 -21 11 -21 5 0 17 -16 25 -35 8 -19
19 -35 24 -35 6 0 10 -11 10 -24 0 -13 7 -29 15 -36 8 -7 15 -21 15 -32 0 -11
9 -22 20 -25 11 -3 17 -9 14 -14 -9 -15 6 -49 22 -49 9 0 14 -10 14 -29 0 -16
6 -31 15 -35 8 -3 15 -17 15 -31 0 -14 7 -28 15 -31 8 -4 15 -16 15 -28 0 -28
15 -50 29 -42 7 5 11 -5 11 -27 0 -22 6 -37 15 -41 8 -3 15 -17 15 -32 0 -17
6 -28 18 -31 14 -3 18 -11 15 -28 -3 -14 3 -30 17 -43 12 -11 19 -25 16 -31
-4 -6 2 -18 14 -28 11 -10 20 -28 20 -41 0 -18 4 -23 16 -18 9 3 20 6 25 6 5
0 9 7 9 15 0 12 13 15 55 15 40 0 57 4 61 15 4 9 19 15 42 15 19 0 44 8 54 17
10 9 35 18 55 19 20 1 42 9 48 18 8 10 27 16 54 16 28 0 44 5 47 15 4 9 19 15
40 15 19 0 37 6 42 15 4 9 24 18 43 20 19 3 39 11 45 20 7 9 27 15 48 15 23 0
39 5 42 15 4 8 18 15 34 15 15 0 34 8 44 19 10 11 25 16 41 14 16 -4 27 1 37
16 8 13 23 21 41 21 15 0 30 7 33 15 4 8 18 15 34 15 16 0 36 7 44 16 9 8 28
18 43 20 15 3 35 12 44 20 8 8 23 14 33 14 9 0 19 7 22 15 4 8 16 15 29 15 12
0 28 6 34 14 7 8 26 18 42 21 17 4 33 13 36 21 3 8 15 14 28 14 12 0 28 7 35
15 7 8 18 15 26 15 7 0 19 6 26 13 7 8 26 17 41 21 15 3 27 13 27 21 0 8 6 12
14 9 8 -3 24 4 35 15 12 12 30 21 40 21 10 0 21 7 25 15 3 8 14 15 24 15 11 0
26 7 33 16 7 9 24 20 37 25 13 5 20 13 17 19 -3 5 3 10 14 10 24 0 97 48 93
62 -1 5 2 7 7 4 14 -9 41 4 41 20 0 8 10 14 25 14 16 0 25 6 25 15 0 8 8 15
18 15 11 0 27 9 37 20 10 11 24 20 32 20 7 0 13 5 13 10 0 6 8 13 18 17 9 3
24 12 32 19 8 7 24 21 36 31 11 10 26 19 33 21 7 1 19 8 26 15 7 7 25 21 40
32 14 11 34 28 43 38 9 9 20 17 24 17 5 0 16 8 26 18 10 9 36 31 57 47 21 17
46 38 56 48 11 9 24 17 29 17 6 0 10 7 10 15 0 8 9 15 19 15 11 0 22 8 25 18
4 11 17 25 31 32 14 7 40 29 59 49 19 20 103 104 188 188 181 180 254 259 251
273 -2 5 0 9 5 9 22 -4 32 3 32 21 0 11 7 20 15 20 8 0 15 5 15 10 0 6 8 18
18 28 15 16 49 57 102 122 8 10 22 28 30 41 8 12 23 31 33 41 9 10 17 22 17
28 0 5 6 13 14 17 8 4 16 14 18 22 2 7 18 30 35 50 18 20 33 44 33 54 0 9 6
17 14 17 8 0 17 11 20 25 4 14 11 25 16 25 6 0 15 11 20 25 5 14 14 25 20 25
5 0 10 9 10 20 0 10 6 23 13 27 19 12 57 70 57 88 0 8 7 15 15 15 9 0 15 9 15
25 0 14 4 25 8 25 11 0 62 78 62 95 0 7 7 15 15 19 8 3 15 15 15 26 0 11 9 29
21 41 13 13 18 27 14 40 -4 12 -2 19 6 17 6 -2 31 35 55 82 24 47 50 94 59
105 8 10 15 29 15 41 0 12 7 27 15 34 8 7 15 20 15 30 0 10 7 23 15 30 8 7 15
18 15 24 0 6 9 28 20 49 11 20 20 43 20 51 0 7 7 19 15 26 8 7 15 25 15 40 0
16 7 30 15 34 10 3 15 19 15 45 0 30 4 39 14 35 14 -5 26 23 26 64 0 13 6 22
15 22 11 0 15 11 15 36 0 21 6 42 15 48 8 6 15 28 17 49 1 20 7 37 14 37 15 0
24 23 24 65 0 20 6 35 15 39 10 4 15 20 15 51 0 33 4 45 15 45 11 0 15 12 15
45 0 31 5 47 15 51 9 4 17 26 21 55 4 27 13 54 20 60 8 7 14 31 14 61 0 34 4
50 15 54 11 5 15 21 15 60 0 41 5 59 20 74 15 15 20 33 20 69 0 31 5 53 15 61
10 8 15 31 15 71 0 40 4 60 14 66 10 6 15 29 17 77 2 50 7 74 20 87 13 13 17
34 17 88 0 49 5 78 16 96 12 18 16 48 16 111 0 65 4 90 15 98 11 8 15 38 16
123 1 62 5 110 10 108 16 -10 27 71 28 198 0 101 3 131 16 143 17 18 18 72 16
1023 -1 500 -3 567 -17 582 -13 14 -16 45 -16 161 -1 121 -4 148 -19 174 -16
26 -19 52 -19 143 0 90 -3 113 -15 117 -12 5 -15 26 -15 98 0 58 -4 96 -12
104 -19 19 -194 16 -202 -3z"/>
<path d="M15695 6304 c-135 -21 -335 -55 -375 -64 -19 -5 -78 -19 -130 -31
-52 -12 -115 -27 -140 -34 -158 -46 -198 -58 -227 -71 -17 -8 -40 -14 -51 -14
-12 0 -23 -4 -27 -9 -3 -5 -20 -13 -37 -16 -18 -4 -48 -15 -68 -25 -19 -10
-51 -24 -70 -31 -68 -27 -261 -129 -332 -176 -240 -157 -408 -360 -479 -577
-32 -98 -59 -307 -59 -451 0 -157 36 -414 76 -550 83 -281 156 -431 331 -685
21 -30 101 -118 178 -195 171 -172 321 -281 505 -370 60 -29 70 -33 145 -65
28 -11 57 -25 66 -29 23 -13 227 -72 284 -82 28 -5 68 -14 91 -19 253 -57 691
-59 994 -4 120 22 312 73 375 100 17 7 55 22 85 34 60 23 116 48 140 62 8 4
22 11 30 15 38 16 192 112 253 157 117 87 255 217 341 321 76 93 166 218 166
232 0 4 7 14 15 23 39 44 162 324 199 455 9 33 22 76 28 95 12 38 35 165 48
275 11 82 13 347 4 443 -22 254 -109 437 -293 622 -113 113 -259 219 -398 288
-44 22 -88 44 -98 49 -54 28 -114 53 -128 53 -9 0 -18 4 -22 10 -3 5 -20 14
-38 19 -18 5 -63 21 -102 34 -38 13 -101 34 -140 46 -38 12 -85 26 -104 33
-44 14 -122 31 -281 63 -69 14 -156 32 -195 40 -38 8 -95 17 -125 19 -30 3
-84 10 -120 16 -86 13 -204 11 -315 -6z"/>
<path d="M15817 2002 c-88 -80 -365 -272 -392 -272 -4 0 -16 -6 -24 -14 -9 -7
-59 -36 -111 -63 -296 -152 -608 -253 -930 -300 -159 -23 -602 -26 -663 -4
-29 10 -42 10 -50 2 -25 -25 60 -76 338 -206 47 -22 203 -79 285 -105 41 -13
93 -29 115 -36 241 -75 691 -151 995 -169 41 -3 101 -7 132 -10 88 -9 667 -6
803 3 66 5 129 10 140 10 11 1 45 6 75 11 30 5 79 10 109 10 51 1 83 6 336 53
178 32 388 86 544 138 173 58 225 77 249 90 9 5 40 19 67 30 118 50 247 123
278 158 18 20 18 20 -2 27 -11 3 -31 0 -43 -7 -17 -10 -89 -13 -288 -13 -311
0 -370 7 -685 81 -60 14 -114 29 -120 34 -5 4 -27 10 -47 14 -20 4 -50 13 -65
21 -15 8 -33 15 -39 15 -6 0 -33 9 -60 21 -27 11 -65 27 -84 36 -103 43 -203
92 -265 128 -33 19 -69 39 -80 45 -63 32 -307 200 -371 256 -34 30 -71 54 -83
54 -12 0 -40 -17 -64 -38z"/>
</g>
</svg>
